<svg xmlns="http://www.w3.org/2000/svg" xmlns:xlink="http://www.w3.org/1999/xlink" width="44.671" height="35.737" viewBox="0 0 44.671 35.737"><defs><clipPath id="a"><rect width="44.671" height="35.737" fill="none"/></clipPath></defs><g clip-path="url(#a)"><path d="M41.864,18.935A13.9,13.9,0,0,0,34.206,16.7v-.1a14.705,14.705,0,0,0,6.623-3.069,7.543,7.543,0,0,0,2.535-6.034,6.662,6.662,0,0,0-.927-3.641,6.712,6.712,0,0,0-2.507-2.315,11.5,11.5,0,0,0-3.652-1.2A27.447,27.447,0,0,0,31.862,0c-.145,0-.294.008-.44.01V0H19.7V15.8A56.8,56.8,0,0,0,5.422,18.57V0H0V35.738H5.422V20.645A54.389,54.389,0,0,1,19.7,17.758v17.98H31.884v-.026a24.285,24.285,0,0,0,3.82-.468,13.817,13.817,0,0,0,4.442-1.717,9.891,9.891,0,0,0,3.271-3.2,8.958,8.958,0,0,0,1.253-4.89q0-4.473-2.807-6.5M27.283,2q.981-.078,2.4-.078a21.524,21.524,0,0,1,3.161.234,8.207,8.207,0,0,1,2.834.936,5.826,5.826,0,0,1,2.071,1.976,6.246,6.246,0,0,1,.818,3.407,6.681,6.681,0,0,1-.9,3.615A6.809,6.809,0,0,1,35.3,14.384a10.588,10.588,0,0,1-3.352,1.222,19.851,19.851,0,0,1-3.788.364H25.57V2.182q.752-.1,1.713-.178M38.948,28.949a8.126,8.126,0,0,1-1.908,2.757A7.991,7.991,0,0,1,34.233,33.4a9.917,9.917,0,0,1-3.352.572q-1.472,0-2.889-.078-1.4-.077-2.422-.179V17.895h2.095a35.453,35.453,0,0,1,4.933.312,12.033,12.033,0,0,1,3.788,1.118,5.811,5.811,0,0,1,2.425,2.237,7.14,7.14,0,0,1,.845,3.667,9.3,9.3,0,0,1-.709,3.719" transform="translate(0 -0.001)" fill="#161615"/></g></svg>